<?xml version="1.0" ?><svg id="Layer_1" style="enable-background:new 0 0 512 512;" version="1.1" viewBox="0 0 512 512" xml:space="preserve" xmlns="http://www.w3.org/2000/svg" xmlns:xlink="http://www.w3.org/1999/xlink"><style type="text/css">.st0{fill: #f0f7f9;}.st1{fill:#f0f7f9;}
</style><g><path class="st0" d="M256,457.5c-111.1,0-201.5-90.4-201.5-201.5c0-111.1,90.4-201.5,201.5-201.5c111.1,0,201.5,90.4,201.5,201.5   C457.5,367.1,367.1,457.5,256,457.5z M256,64.5C150.4,64.5,64.5,150.4,64.5,256S150.4,447.5,256,447.5   c105.6,0,191.5-85.9,191.5-191.5S361.6,64.5,256,64.5z"/><g id="XMLID_396_"><g id="XMLID_400_"><g id="XMLID_401_"><path class="st1" d="M369.9,230.7c2,1.3,4.7-0.2,4.7-2.6c0,0,0,0,0-0.1c0-14.3-11.6-26-26-26      c-14.3,0-26,11.6-26,26c0,0,0,0,0,0.1c0,2.4,2.7,3.8,4.7,2.6c6.2-3.8,13.4-6,21.2-6C356.5,224.6,363.7,226.8,369.9,230.7z" id="XMLID_402_"/></g></g><g id="XMLID_397_"><g id="XMLID_398_"><path class="st1" d="M184.6,230.7c2,1.3,4.7-0.2,4.7-2.6c0,0,0,0,0-0.1c0-14.3-11.6-26-26-26      c-14.3,0-26,11.6-26,26c0,0,0,0,0,0.1c0,2.4,2.7,3.8,4.7,2.6c6.2-3.8,13.4-6,21.2-6C171.1,224.6,178.4,226.8,184.6,230.7z" id="XMLID_399_"/></g></g></g><g id="XMLID_392_"><g id="XMLID_393_"><g id="XMLID_394_"><path class="st1" d="M257.1,345.5c-32.9,0-65.4-12.7-89.3-34.9c-3.9-3.6-4.1-9.7-0.5-13.6      c3.6-3.9,9.7-4.1,13.6-0.5c20.3,18.9,48.1,29.7,76.2,29.7c27.1,0,54.2-10.2,74.2-28c4-3.5,10-3.1,13.6,0.8      c3.5,4,3.1,10-0.8,13.6C320.1,333.9,289.3,345.5,257.1,345.5z" id="XMLID_395_"/></g></g></g></g></svg>